<?xml version="1.0" standalone="no"?>
<!DOCTYPE svg PUBLIC "-//W3C//DTD SVG 1.1//EN" "http://www.w3.org/Graphics/SVG/1.1/DTD/svg11.dtd" >
<svg xmlns="http://www.w3.org/2000/svg">
<metadata>
This is a custom SVG webfont generated by Font Squirrel.
Copyright   : Copyright c 2012 by The League of Moveable Type
Designer    : Tyler Finck
Foundry     : The League of Moveable Type
Foundry URL : httptheleagueofmoveabletypecom
</metadata>
<defs>
<font id="LeagueGothicCondensedRegular" horiz-adv-x="456" >
<font-face units-per-em="2048" ascent="1505" descent="-543" />
<missing-glyph horiz-adv-x="221" />
<glyph unicode=" "  horiz-adv-x="221" />
<glyph unicode="&#x09;" horiz-adv-x="221" />
<glyph unicode="&#xa0;" horiz-adv-x="221" />
<glyph unicode="!" horiz-adv-x="292" d="M27 1505h180l-33 -1099h-115zM33 0v227h166v-227h-166z" />
<glyph unicode="&#x22;" horiz-adv-x="417" d="M20 1505h166l-18 -551h-129zM227 1505h166l-18 -551h-129z" />
<glyph unicode="#" horiz-adv-x="800" d="M10 438l17 195h118q2 55 11 129l12 129h-117l15 194h118q4 80 17 209l18 211h154l-33 -420h119q4 80 16 209l19 211h153l-35 -420h117l-16 -194h-115l-12 -129q-8 -84 -11 -129h115l-16 -195h-115l-18 -219q-12 -147 -17 -219h-155l34 438h-118l-19 -219 q-12 -147 -16 -219h-156l37 438h-121zM301 633h119q2 55 10 129l12 129h-118z" />
<glyph unicode="$" horiz-adv-x="479" d="M6 358l133 13q4 -80 25 -129q25 -57 65 -58q35 0 52 58q14 45 14 127q0 78 -41 174q-25 57 -39 84q-47 86 -90 176q-61 133 -82 227q-14 72 -14 125q0 119 32 211q37 104 119 131v131h86v-125q76 -10 121 -96q37 -76 43 -186l-133 -25q-6 59 -20.5 93t-45.5 32 q-29 0 -45 -51q-14 -53 -14 -111q0 -72 41 -172q20 -51 80 -166q25 -46 49 -98q59 -119 84 -225q12 -61 12 -127q0 -152 -37 -242q-47 -113 -135 -127v-217h-86v221q-88 23 -131 125q-43 96 -43 227z" />
<glyph unicode="%" horiz-adv-x="837" d="M43 911v437q0 76 42 125t112 49q139 0 151 -174v-437q-4 -78 -43 -127t-108 -49q-74 0 -114 51.5t-40 124.5zM158 0l430 1505h131l-424 -1505h-137zM166 911q-4 -55 31 -55q28 0 28 55v437q0 55 -28 55q-31 0 -31 -55v-437zM526 158v436q0 76 42 126t112 50 q72 0 108.5 -51t42.5 -125v-436q-4 -76 -43.5 -125t-107.5 -49q-74 0 -114 51t-40 123zM649 158q-4 -57 31 -58q29 1 29 58v436q0 55 -29 55q-31 0 -31 -55v-436z" />
<glyph unicode="&#x26;" horiz-adv-x="573" d="M-8 291q0 141 121 461q-63 231 -64 442q6 328 180 328q55 0 93 -34t54.5 -89.5t23 -101.5t6.5 -97q0 -76 -22 -164t-39 -130t-60 -146q70 -260 73 -271q33 91 33 185l135 -25q-4 -127 -92 -391q14 -31 72 -61v-213q-33 10 -53.5 19t-37 27.5t-20.5 24.5t-22 37 q-41 -109 -162 -108q-80 0 -133 57t-69.5 120.5t-16.5 129.5zM158 293q0 -51 16 -91t45 -40q53 0 80 98q-51 113 -100 281q-41 -199 -41 -248zM188 1200q0 -133 29 -225q45 131 45 225q4 145 -37 146q-37 0 -37 -146z" />
<glyph unicode="'" horiz-adv-x="247" d="M16 1505h166l-18 -551h-129z" />
<glyph unicode="(" horiz-adv-x="397" d="M20 645q0 328 89 664q43 158 94 301l125 -109q-82 -205 -127 -506q-25 -157 -25 -350q0 -330 78 -620q31 -127 74 -234l-123 -106q-102 258 -158 598q-27 160 -27 362z" />
<glyph unicode=")" horiz-adv-x="397" d="M8 -209q70 166 129 506q25 176 25 348q0 301 -78 621q-43 155 -76 235l125 109q102 -274 156 -600q27 -162 26 -365q0 -328 -88 -663q-33 -129 -96 -297z" />
<glyph unicode="*" horiz-adv-x="468" d="M23 1255l28 142l99 -47l-11 155h129l-10 -157l96 49l31 -142l-109 -38l89 -134l-99 -100l-63 125l-62 -125l-100 100l96 134z" />
<glyph unicode="+" horiz-adv-x="698" d="M27 649v172h221v346h141v-346h221v-172h-221v-346h-141v346h-221z" />
<glyph unicode="," horiz-adv-x="247" d="M8 0v227h166v-227l-68 -266h-98l51 266h-51z" />
<glyph unicode="-" horiz-adv-x="327" d="M27 455v194h215v-194h-215z" />
<glyph unicode="." horiz-adv-x="253" d="M14 0v227h166v-227h-166z" />
<glyph unicode="/" horiz-adv-x="493" d="M-14 -147l325 1652h135l-321 -1652h-139z" />
<glyph unicode="0" horiz-adv-x="495" d="M18 289v928q0 131 50.5 218t156.5 87q76 0 125 -53.5t64.5 -116.5t15.5 -135v-928q0 -133 -48 -219t-157 -86q-76 0 -124 48t-65.5 112.5t-17.5 144.5zM193 289q0 -90 34 -90q33 0 33 90v928q0 90 -33 90q-35 0 -34 -90v-928z" />
<glyph unicode="1" horiz-adv-x="346" d="M-4 1180v137q61 23 115 110q16 33 26 78h117v-1505h-170v1180h-88z" />
<glyph unicode="2" horiz-adv-x="499" d="M14 0v219q84 223 121 326.5t79 276.5t44 311q0 184 -35 184t-35 -184v-105h-170v105q6 389 205 389t199 -375q0 -334 -221 -928h211v-219h-398z" />
<glyph unicode="3" horiz-adv-x="473" d="M8 1071q0 451 203 451q76 0 125 -62.5t63.5 -132.5t14.5 -141q0 -166 -21.5 -256t-81.5 -162q106 -72 107 -383q0 -84 -7.5 -147.5t-28 -125t-62 -95t-103.5 -33.5q-203 -1 -203 450h166q0 -256 37 -256q35 0 35 205q-4 174 -26.5 233.5t-94.5 63.5v182q33 2 55.5 18.5 t33.5 35t16.5 56.5t6.5 61.5t1 71.5v17q0 199 -31 199q-37 0 -37 -250h-168z" />
<glyph unicode="4" horiz-adv-x="479" d="M2 328v194l211 983h166v-983h61v-194h-61v-328h-146v328h-231zM145 522h93v465z" />
<glyph unicode="5" horiz-adv-x="483" d="M27 415v23h168v-100q0 -162 30 -162q37 0 37 160v377q0 47 -10 78.5t-27 31.5q-20 0 -31.5 -41t-11.5 -69h-147v792h356v-219h-205v-321q2 20 33 39.5t55 19.5q154 0 154 -311v-357q-4 -373 -211 -372q-55 0 -94 33.5t-57.5 74.5t-27.5 112.5t-10 108.5t-1 102z" />
<glyph unicode="6" horiz-adv-x="481" d="M20 289v889q4 344 203 344q201 0 201 -344v-107h-164q0 258 -37 258q-33 0 -33 -151v-279q4 10 27 22.5t45 12.5q168 -1 168 -277v-368q-2 -121 -55 -213t-162 -92q-76 0 -122 57t-58.5 118.5t-12.5 129.5zM190 264q0 -88 37 -88q39 0 39 88v430q0 68 -39 68 q-31 -1 -37 -62v-436z" />
<glyph unicode="7" horiz-adv-x="415" d="M-12 1286v219h372v-221l-133 -1284h-174l135 1286h-200z" />
<glyph unicode="8" horiz-adv-x="479" d="M29 260v320q0 129 86 215q-80 80 -80 194v291q0 96 50 169t144 73q98 0 146.5 -74t48.5 -168v-291q0 -127 -80 -194q86 -49 86 -215v-320q0 -111 -50 -193.5t-151 -82.5q-102 0 -151 86t-49 190zM195 250q0 -29 11 -48.5t23.5 -19.5t23.5 19.5t11 48.5v160v184 q0 86 -34.5 86t-34.5 -86v-184v-160zM195 946q0 -29 11 -48t23.5 -19t23.5 19.5t11 47.5v139v164q0 84 -34.5 84t-34.5 -84v-164v-139z" />
<glyph unicode="9" horiz-adv-x="481" d="M4 848v369q2 121 55.5 213t161.5 92q76 0 122 -57.5t58.5 -119t12.5 -128.5v-889q-4 -344 -203 -344q-201 0 -201 344v106h164q0 -258 37 -258q33 0 33 152v278q-4 -10 -26.5 -22.5t-45.5 -12.5q-168 1 -168 277zM168 811q0 -68 39 -68q31 1 37 62v436q0 88 -37 88 q-39 0 -39 -88v-430z" />
<glyph unicode=":" horiz-adv-x="278" d="M27 0v227h166v-227h-166zM27 893v227h166v-227h-166z" />
<glyph unicode=";" horiz-adv-x="278" d="M27 0v227h166v-227l-68 -266h-98l51 266h-51zM27 893v227h166v-227h-166z" />
<glyph unicode="&#x3c;" horiz-adv-x="696" d="M27 655v148l583 508v-219l-426 -363q14 -12 211 -180l215 -182v-220z" />
<glyph unicode="=" horiz-adv-x="696" d="M27 477v172h583v-172h-583zM27 864v172h583v-172h-583z" />
<glyph unicode="&#x3e;" horiz-adv-x="696" d="M27 147v220l424 362l-424 363v219l583 -508v-148z" />
<glyph unicode="?" horiz-adv-x="313" d="M-29 1260q12 66 66 153q63 100 153 100q188 0 189 -266q0 -96 -60 -239q-23 -57 -26 -66q-35 -86 -49 -172q-6 -35 -6 -108v-256h-146v256q0 106 41 270q16 63 64 182q10 25 19 52.5t16.5 66.5t-4 63.5t-42.5 24.5q-33 0 -61 -55q-2 -4 -31 -90zM84 0v227h166v-227h-166z " />
<glyph unicode="@" horiz-adv-x="692" d="M16 311v873q0 119 58 211q88 133 249.5 133t254.5 -133q55 -90 55 -211v-795h-137l-27 64q-8 -29 -40 -53.5t-64 -24.5q-51 0 -80 53t-29 135v477q0 184 129 185q39 0 72 -29q-4 51 -25 78q-29 53 -108 53q-76 0 -105 -53q-29 -45 -29 -90v-873q0 -45 29 -84 q31 -55 105 -55q84 0 129 72l145 -103q-98 -164 -274 -164q-158 0 -250 132q-57 88 -58 202zM414 575q0 -14 8 -24t16 -10q25 -1 25 34v449q0 35 -27 35q-23 0 -22 -35v-449z" />
<glyph unicode="A" horiz-adv-x="520" d="M-6 0l137 1505h199l135 -1505h-166l-23 307h-94l-22 -307h-166zM199 541h63l-33 598z" />
<glyph unicode="B" horiz-adv-x="507" d="M31 0v1505h149q115 0 176 -88q70 -106 70 -311q0 -129 -16 -195q-27 -84 -72 -116q66 -61 84 -148q14 -66 14 -221q0 -209 -33 -297q-49 -129 -149 -129h-223zM201 219q33 0 41 10q22 30 22 206v16q0 199 -22 221q-10 10 -41 10v-463zM201 885q33 0 41 12q23 30 23 182 q-1 3 -1 7q0 158 -22 188q-12 12 -41 12v-401z" />
<glyph unicode="C" horiz-adv-x="487" d="M18 289v928q0 121 48.5 213t152.5 92q57 0 100 -32t63.5 -82t30 -98t9.5 -93v-228h-166v228q0 90 -35 90q-28 0 -28 -77v-5v-936q0 -90 28 -90q35 0 35 90v227h166v-227q0 -133 -47 -219t-156 -86q-74 0 -122 51t-63.5 114.5t-15.5 139.5z" />
<glyph unicode="D" horiz-adv-x="518" d="M31 0v1505h141q100 0 148.5 -33.5t76.5 -121.5q39 -129 39 -598q0 -528 -30 -619q-23 -66 -70 -99.5t-141 -33.5h-164zM201 221q16 0 22 1t19.5 10.5t19.5 35t6 68.5v352q0 492 -6 547q-2 12 -6 21.5t-7 14.5t-11.5 8t-11.5 3t-13 1t-12 1v-1063z" />
<glyph unicode="E" horiz-adv-x="438" d="M31 0v1505h340v-227h-170v-395h123v-242h-123v-414h170v-227h-340z" />
<glyph unicode="F" horiz-adv-x="432" d="M31 0v1505h352v-227h-182v-395h123v-228h-123v-655h-170z" />
<glyph unicode="G" horiz-adv-x="503" d="M18 289v928q0 121 49.5 213t153.5 92q57 0 100.5 -30t64 -79t29.5 -97t9 -99v-252h-170v252q0 90 -33 90q-31 0 -31 -90v-947q0 -90 35 -90q41 0 41 90v293h-37v187h195v-750h-88l-19 55q-14 -27 -49 -49t-63 -22q-53 0 -92 31.5t-58.5 81.5t-28 98.5t-8.5 93.5z" />
<glyph unicode="H" horiz-adv-x="528" d="M31 0v1505h170v-622h65v622h170v-1505h-170v655h-65v-655h-170z" />
<glyph unicode="I" horiz-adv-x="292" d="M31 0v1505h170v-1505h-170z" />
<glyph unicode="J" horiz-adv-x="315" d="M-8 -12v221q10 -2 19 -2q29 0 41 27q16 34 16 79v1192h170v-1226q0 -145 -56 -224q-48 -69 -156 -69q-16 0 -34 2z" />
<glyph unicode="K" horiz-adv-x="522" d="M31 0v1505h164v-432l110 432h166l-149 -551l145 -954h-166l-106 717v-717h-164z" />
<glyph unicode="L" horiz-adv-x="423" d="M31 0v1505h170v-1300h176v-205h-346z" />
<glyph unicode="M" horiz-adv-x="655" d="M31 0v1505h188l78 -710l78 710h188v-1505h-162v741l-57 -741h-92l-64 741v-741h-157z" />
<glyph unicode="N" horiz-adv-x="546" d="M31 0v1505h143l123 -710v710h158v-1505h-144l-123 731v-731h-157z" />
<glyph unicode="O" horiz-adv-x="495" d="M18 289v928q0 131 50.5 218t156.5 87q76 0 125 -53.5t64.5 -116.5t15.5 -135v-928q0 -133 -48 -219t-157 -86q-76 0 -124 48t-65.5 112.5t-17.5 144.5zM193 289q0 -90 34 -90q33 0 33 90v928q0 90 -33 90q-35 0 -34 -90v-928z" />
<glyph unicode="P" horiz-adv-x="493" d="M31 0v1505h172q102 0 159 -90q72 -115 72 -360q0 -252 -72 -367q-51 -82 -161 -86v-602h-170zM201 827q41 0 53 25q16 33 16 195q0 178 -16 215q-10 22 -53 22v-457z" />
<glyph unicode="Q" horiz-adv-x="499" d="M18 289v928q0 305 199 305q76 0 125 -53.5t64.5 -116.5t15.5 -135v-928q0 -90 -31 -178v-2v-3q18 -29 47 -36v-185q-125 0 -166 107h-2q-12 -4 -18 -4l-25 -4h-16q-2 0 -5 1l-3 1q-70 4 -114 55t-57.5 111.5t-13.5 136.5zM193 289q0 -90 26 -90q29 0 29 90v928 q0 90 -29 90q-26 0 -26 -84v-6v-928z" />
<glyph unicode="R" horiz-adv-x="505" d="M31 0v1505h172q117 0 171 -108.5t54 -325.5q0 -250 -78 -342l105 -729h-166l-88 655v-655h-170zM201 829q31 0 45 23q20 29 20 211q0 174 -18 203q-12 20 -47 20v-457z" />
<glyph unicode="S" horiz-adv-x="483" d="M4 352v68l166 24q0 -258 45 -258q23 0 29 33t6 113q0 86 -28.5 175t-106.5 275q-92 248 -92 387q0 57 7 110.5t25.5 112t59.5 93.5t98 37h3q202 0 202 -398l-168 -24q0 219 -33 219q-29 0 -29 -150q0 -102 101 -354q66 -160 97.5 -265.5t31.5 -207.5q0 -358 -203 -358 q-45 0 -80 18t-56.5 43t-36.5 69t-22.5 75.5t-11.5 86t-4 76.5z" />
<glyph unicode="T" horiz-adv-x="450" d="M-16 1278v227h419v-227h-124v-1278h-170v1278h-125z" />
<glyph unicode="U" horiz-adv-x="512" d="M16 289v1216h170v-1216q0 -90 33 -90q31 0 31 90v1216h170v-1216q0 -305 -201 -305q-203 0 -203 305z" />
<glyph unicode="V" horiz-adv-x="491" d="M-8 1505h166l57 -770l57 770h166l-139 -1505h-168z" />
<glyph unicode="W" horiz-adv-x="684" d="M-4 1505h160l43 -706l49 706h125l51 -704q6 111 20.5 352.5t20.5 351.5h160l-111 -1505h-145l-58 721l-57 -721h-143z" />
<glyph unicode="X" horiz-adv-x="503" d="M-8 0l145 791q-2 12 -30.5 150t-40.5 206l-72 358h168l59 -364q10 59 30.5 181t29.5 183h168l-144 -714q8 -45 23.5 -132.5t23.5 -126.5l99 -532h-166l-64 416l-63 -416h-166z" />
<glyph unicode="Y" horiz-adv-x="481" d="M-4 1505h168l57 -438q8 70 28.5 216.5t31.5 221.5h168l-142 -864v-641h-170v641z" />
<glyph unicode="Z" horiz-adv-x="438" d="M-6 0v238l207 1048h-178v219h360v-219l-213 -1067h213v-219h-389z" />
<glyph unicode="[" horiz-adv-x="385" d="M31 -213v1718h276v-196h-121v-1325h121v-197h-276z" />
<glyph unicode="\" horiz-adv-x="536" d="M-14 1692h135l368 -1872h-137z" />
<glyph unicode="]" horiz-adv-x="385" d="M16 -16h121v1325h-121v196h277v-1718h-277v197z" />
<glyph unicode="^" horiz-adv-x="722" d="M14 809l228 696h178l227 -696h-155l-162 487l-160 -487h-156z" />
<glyph unicode="_" horiz-adv-x="724" d="M27 -154h612v-172h-612v172z" />
<glyph unicode="`" horiz-adv-x="675" d="M160 1489h164l63 -184h-131z" />
<glyph unicode="a" horiz-adv-x="471" d="M10 260q0 270 156 404q57 48 65 79v121q0 94 -26 94q-14 0 -21.5 -32.5t-7.5 -61.5v-73h-156v67q0 109 48.5 194t142.5 85q86 0 131 -81q41 -74 41 -158v-15v-688q0 -113 10 -195h-137q-18 31 -25 68q-33 -84 -104 -84q-117 0 -117 276zM158 262q0 -84 28 -84 q18 0 30.5 22.5t12.5 53.5v260q-29 -37 -50 -111.5t-21 -140.5z" />
<glyph unicode="b" horiz-adv-x="473" d="M31 0v1505h162v-432q4 20 32.5 42t50.5 22q125 0 125 -219v-715v-36q0 -32 -1 -43t-4 -40t-9 -41t-15.5 -28.5t-25.5 -23.5t-37 -7q-37 0 -71.5 27.5t-44.5 49.5v-61h-162zM193 256q0 -78 28.5 -78t28.5 78v627q0 74 -28.5 74t-28.5 -74v-627z" />
<glyph unicode="c" horiz-adv-x="448" d="M20 295v530q0 55 9.5 104.5t29 98.5t58.5 79t94 30q66 0 106.5 -25t58 -75t21.5 -91t4 -110v-109h-155v147q0 82 -31 82q-14 0 -23.5 -25.5t-9.5 -56.5v-616q0 -88 31 -88q33 0 33 88v156h155v-129q0 -57 -3 -93t-14 -80t-30.5 -69t-56.5 -42t-90 -17q-57 0 -96 30.5 t-57.5 81.5t-26 99.5t-7.5 99.5z" />
<glyph unicode="d" horiz-adv-x="473" d="M43 167v36v715q0 219 125 219q23 0 51.5 -21.5t32.5 -42.5v432h162v-1505h-162v61q-10 -23 -45 -50t-72 -27q-20 0 -36.5 7t-26 23.5t-15.5 28.5t-9 41t-4 40t-1 43zM195 256q0 -78 28.5 -78t28.5 78v627q0 74 -28 74q-29 0 -29 -74v-627z" />
<glyph unicode="e" d="M20 266v584q0 115 47.5 201t141.5 86q61 0 102 -25t59.5 -69t24.5 -87t6 -100v-334h-223v-243q0 -113 31 -113q39 0 39 113v122h153v-141q0 -276 -202 -276q-68 0 -110 46t-55.5 104.5t-13.5 131.5zM178 684h70v158q0 114 -40 114h-1q-29 1 -29 -114v-158z" />
<glyph unicode="f" horiz-adv-x="346" d="M-6 934v186h63v66q0 68 5.5 111.5t19.5 100t48 86t87 29.5q41 0 76 -20v-170q-37 23 -57 2q-18 -20 -19 -127v-78h64v-186h-64v-934h-160v934h-63z" />
<glyph unicode="g" horiz-adv-x="501" d="M-10 -184q0 92 106 170h2q-88 43 -88 149q0 92 84 168q-78 119 -78 244v305q2 68 18.5 128t60.5 108.5t108 48.5q88 0 127 -70q59 70 129 70v-185q-57 0 -76 -24q8 -16 8 -49v-338q-6 -106 -55 -191.5t-143 -85.5h-11q-12 -20 -12 -49q0 -47 82 -70q88 -25 123 -63 q63 -78 63 -197q0 -123 -56 -204.5t-175 -81.5q-104 0 -160.5 58t-56.5 159zM145 -150q0 -77 62 -77h2q33 0 54.5 22.5t21.5 52.5q-1 60 -54 80l-49 17q-37 -41 -37 -95zM176 537q0 -100 27 -101q30 1 30 101v317q0 102 -30 102q-27 0 -27 -102v-317z" />
<glyph unicode="h" horiz-adv-x="468" d="M31 0v1505h162v-432q4 20 32.5 42t55.5 22q47 0 75.5 -43t35.5 -87t7 -89v-918h-153v883q0 74 -26.5 74t-26.5 -74v-883h-162z" />
<glyph unicode="i" horiz-adv-x="270" d="M31 0v1120h162v-1120h-162zM31 1298v207h162v-207h-162z" />
<glyph unicode="j" horiz-adv-x="280" d="M-45 -369l4 187q16 0 28.5 -4t19.5 9t11.5 17t6.5 23.5t2 26.5v26v10v1194h161v-1149q0 -147 -18 -221q-14 -59 -51 -97t-92 -38q-37 0 -72 16zM27 1298v207h161v-207h-161z" />
<glyph unicode="k" horiz-adv-x="446" d="M31 0v1505h155v-618l76 233h156l-137 -385l133 -735h-156l-72 475v-475h-155z" />
<glyph unicode="l" horiz-adv-x="280" d="M31 0v1505h162v-1505h-162z" />
<glyph unicode="m" horiz-adv-x="673" d="M31 0v1120h162v-59q18 31 49.5 53.5t60.5 22.5q33 0 53.5 -25t24.5 -57q14 33 53 57.5t74 24.5q102 0 102 -219v-918h-149v883q0 74 -31 74t-31 -74v-883h-147v887q0 69 -30 69h-1q-29 0 -28 -73v-883h-162z" />
<glyph unicode="n" horiz-adv-x="475" d="M31 0v1120h162v-57q16 25 49.5 49.5t58.5 24.5q111 0 111 -219v-918h-160v885q0 71 -30 71v0h-2q-27 0 -27 -73v-883h-162z" />
<glyph unicode="o" d="M20 279v563q0 295 193 295q113 0 149.5 -75t36.5 -214v-576q0 -139 -43 -213.5t-147 -74.5q-188 0 -189 295zM174 258v-16q0 -76 35 -76q19 0 29 34q8 28 8 50v8v604v17q0 77 -35 77q-37 0 -37 -94v-604z" />
<glyph unicode="p" horiz-adv-x="473" d="M31 -385v1505h162v-57q12 27 44.5 50.5t61.5 23.5q113 0 113 -219v-715q-6 -219 -113 -219q-29 0 -60.5 24.5t-45.5 57.5v-451h-162zM193 246q0 -68 30 -68q29 0 29 68v635q0 75 -28 75h-1h-1q-29 0 -29 -75v-635z" />
<glyph unicode="q" horiz-adv-x="473" d="M31 203v715q0 219 112 219q29 0 62 -23.5t45 -50.5v57h162v-1505h-162v451q-14 -33 -46 -57.5t-61 -24.5q-106 0 -112 219zM190 246q0 -68 29 -68q31 0 31 68v635q0 75 -30 75h-1q-29 0 -29 -75v-635z" />
<glyph unicode="r" horiz-adv-x="364" d="M31 0v1120h157v-61q46 78 138 78v-246q-34 20 -60 20q-25 0 -43 -19q-35 -38 -35 -114v-778h-157z" />
<glyph unicode="s" horiz-adv-x="440" d="M4 326h148q0 -170 38 -170q33 0 33 135q0 66 -84 241q-8 16 -31.5 59.5t-32.5 66t-23.5 60.5t-20.5 74.5t-6 77.5q0 115 44 191t132 76q180 0 180 -303h-139q0 131 -37 131q-29 0 -29 -117q0 -20 4 -44t8.5 -39t15.5 -40t16 -35t18.5 -35.5t15.5 -29.5q123 -203 123 -371 q0 -43 -7.5 -84t-25.5 -86t-58 -72.5t-96 -27.5q-61 0 -101 29.5t-57.5 87t-22.5 106.5t-5 119z" />
<glyph unicode="t" horiz-adv-x="358" d="M4 934v186h68v277h157v-277h86v-186h-86v-934h-157v934h-68z" />
<glyph unicode="u" horiz-adv-x="475" d="M23 203v917h159v-884q0 -72 31 -72q29 0 29 74v882h161v-1120h-161v57q-16 -25 -50 -49t-59 -24q-111 0 -110 219z" />
<glyph unicode="v" horiz-adv-x="421" d="M-8 1120h151l47 -657l50 657h151l-121 -1120h-159z" />
<glyph unicode="w" horiz-adv-x="604" d="M-6 1120h145l39 -514l45 514h99l43 -514l38 514h146l-98 -1120h-134l-47 532l-45 -532h-131z" />
<glyph unicode="x" horiz-adv-x="444" d="M2 1120h152l51 -280l55 280h152l-127 -542l114 -578h-149l-45 303q-6 -39 -21.5 -158.5t-19.5 -144.5h-152l115 578z" />
<glyph unicode="y" horiz-adv-x="466" d="M-4 1120h158l59 -661q6 78 27.5 333t25.5 328h160l-139 -1204q-12 -137 -58 -217q-35 -66 -91 -91q-29 -14 -60 -14q-27 0 -55 11v182q18 -7 33 -7q23 0 38 17q37 55 37 170z" />
<glyph unicode="z" horiz-adv-x="380" d="M-10 0v168l170 764h-144v188h312v-168l-170 -764h170v-188h-338z" />
<glyph unicode="{" horiz-adv-x="475" d="M18 453v163q45 0 64 60q14 37 14 80v397q4 205 61.5 289t239.5 80v-172q-94 -2 -119.5 -49.5t-25.5 -147.5v-397q0 -76 -29.5 -141.5t-72.5 -79.5q45 -31 73.5 -90.5t28.5 -131.5v-397q2 -76 10 -111.5t40 -60.5t95 -25v-172q-98 0 -160.5 22.5t-92 75t-39 112 t-9.5 159.5v397q0 39 -14 78q-20 59 -64 62z" />
<glyph unicode="|" horiz-adv-x="274" d="M31 -512v2204h151v-2204h-151z" />
<glyph unicode="}" horiz-adv-x="475" d="M16 -281q90 0 116 43t30 154v397q0 72 28.5 131.5t73.5 90.5q-43 14 -72.5 79.5t-29.5 141.5v397q0 100 -26 147.5t-120 49.5v172q182 4 239.5 -80t61.5 -289v-397q0 -43 15 -80q18 -59 63 -60v-163q-43 -2 -63 -62q-14 -39 -15 -78v-397q0 -100 -9 -159.5t-38.5 -112 t-92 -75t-161.5 -22.5v172z" />
<glyph unicode="~" horiz-adv-x="829" d="M49 1358q29 139 113 254q41 47 106 47q80 0 168 -92l10 -11q63 -72 93 -71q33 0 67 90q10 16 27 86q0 4 2 12t2 10l117 -79q-35 -152 -113 -256q-37 -47 -102 -48q-53 0 -91 26t-83 75q-66 74 -97 74q-33 0 -73 -91q-23 -65 -31 -108z" />
<glyph horiz-adv-x="475" d="M14 1012v227l68 266h98l-43 -266h43v-227h-166zM236 1012v227l67 266h98l-43 -266h43v-227h-165z" />
<glyph horiz-adv-x="466" d="M14 1012l43 266h-43v227h166v-227l-67 -266h-99zM236 1012l43 266h-43v227h165v-227l-67 -266h-98z" />
<glyph unicode="&#xa1;" horiz-adv-x="292" d="M27 -385l32 1100h115l33 -1100h-180zM33 893v227h166v-227h-166z" />
<glyph unicode="&#xa2;" horiz-adv-x="444" d="M14 489v531q0 98 30 189t101 116v242h111v-240q47 -10 78 -37.5t43 -75t15 -85t3 -99.5v-108h-155v147q0 82 -31 82q-14 0 -23.5 -25.5t-9.5 -56.5v-616q0 -88 31 -88q33 0 33 88v155h155v-129q0 -63 -5 -103t-17.5 -85t-42 -71.5t-74.5 -37.5v-305h-109v301 q-74 27 -103.5 120t-29.5 191z" />
<glyph unicode="&#xa3;" horiz-adv-x="550" d="M-16 68q20 84 73 163q16 25 54 45q23 100 22 199q0 72 -18 174h-113v137h90q-6 25 -14 64q-39 211 -39 299q0 152 39 250q47 121 158 123q125 2 178 -123q39 -103 39 -279h-166q0 197 -43 197t-43 -168q0 -106 47 -363h125v-137h-105q16 -102 17 -174q0 -102 -39 -219 q6 -6 14 -14.5t22.5 -20.5t24.5 -22l17 43q16 41 18 149l150 -29q-8 -182 -53.5 -280t-116.5 -98q-39 0 -95.5 51t-69 51t-32.5 -51q-8 -18 -23 -76z" />
<glyph unicode="&#xa5;" horiz-adv-x="493" d="M-4 1505h168l63 -438q6 49 33 211t35 227h168l-133 -753h90v-138h-107v-137h107v-137h-107v-340h-170v340h-104v137h104v137h-104v138h88z" />
<glyph unicode="&#xa8;" horiz-adv-x="675" d="M125 1305v200h151v-200h-151zM338 1305v200h151v-200h-151z" />
<glyph unicode="&#xa9;" horiz-adv-x="1048" d="M14 752q0 319 138 544q133 225 342 226q207 0 342 -226q137 -225 137 -544q0 -317 -137 -543q-135 -225 -342 -225q-209 0 -342 225q-138 226 -138 543zM121 752q0 -270 115 -457q117 -193 258 -193q143 0 260 193q111 190 110 457q0 270 -110 460q-115 190 -260 191 q-143 0 -258 -191q-115 -186 -115 -460zM358 487v531q0 100 52 166q25 31 82 30q88 0 116 -98q14 -51 15 -98v-125h-119v125q2 31 -8 53q-2 0 -2 4l-7 -20q0 -2 -1 -3l-1 -3q-4 -16 -4 -31v-531q0 -37 13 -57v-6q2 0 3 4t2 12.5t3 14.5q6 20 2 32v125h119v-125 q-6 -102 -52 -165q-25 -31 -79 -31q-92 0 -121 98q-12 43 -13 98z" />
<glyph unicode="&#xaa;" horiz-adv-x="471" d="M10 260q0 270 156 404q57 48 65 79v121q0 94 -26 94q-14 0 -21.5 -32.5t-7.5 -61.5v-73h-156v67q0 109 48.5 194t142.5 85q86 0 131 -81q41 -74 41 -158v-15v-688q0 -113 10 -195h-137q-18 31 -25 68q-33 -84 -104 -84q-117 0 -117 276zM158 262q0 -84 28 -84 q18 0 30.5 22.5t12.5 53.5v260q-29 -37 -50 -111.5t-21 -140.5z" />
<glyph unicode="&#xad;" horiz-adv-x="327" d="M27 455v194h215v-194h-215z" />
<glyph unicode="&#xae;" horiz-adv-x="1048" d="M14 752q0 319 138 544q133 225 342 226q207 0 342 -226q137 -225 137 -544q0 -317 -137 -543q-135 -225 -342 -225q-209 0 -342 225q-138 226 -138 543zM121 752q0 -270 115 -457q117 -193 258 -193q143 0 260 193q111 190 110 457q0 270 -110 460q-115 190 -260 191 q-143 0 -258 -191q-115 -186 -115 -460zM356 313v879h138q156 0 155 -258q0 -143 -53 -221h2l64 -400h-130l-51 338v-338h-125zM481 805h8q41 0 41 127q0 57 -10 88q-11 43 -31 43h-8v-258z" />
<glyph unicode="&#xaf;" horiz-adv-x="675" d="M170 1315v162h274v-162h-274z" />
<glyph unicode="&#xb2;" horiz-adv-x="499" d="M14 0v219q84 223 121 326.5t79 276.5t44 311q0 184 -35 184t-35 -184v-105h-170v105q6 389 205 389t199 -375q0 -334 -221 -928h211v-219h-398z" />
<glyph unicode="&#xb3;" horiz-adv-x="473" d="M8 1071q0 451 203 451q76 0 125 -62.5t63.5 -132.5t14.5 -141q0 -166 -21.5 -256t-81.5 -162q106 -72 107 -383q0 -84 -7.5 -147.5t-28 -125t-62 -95t-103.5 -33.5q-203 -1 -203 450h166q0 -256 37 -256q35 0 35 205q-4 174 -26.5 233.5t-94.5 63.5v182q33 2 55.5 18.5 t33.5 35t16.5 56.5t6.5 61.5t1 71.5v17q0 199 -31 199q-37 0 -37 -250h-168z" />
<glyph unicode="&#xb4;" horiz-adv-x="675" d="M227 1305l64 184h164l-97 -184h-131z" />
<glyph unicode="&#xb7;" horiz-adv-x="190" d="M-18 649v228h165v-228h-165z" />
<glyph unicode="&#xb8;" horiz-adv-x="675" d="M238 -111h139v-141l-27 -133h-100l33 133h-45v141z" />
<glyph unicode="&#xb9;" horiz-adv-x="346" d="M-4 1180v137q61 23 115 110q16 33 26 78h117v-1505h-170v1180h-88z" />
<glyph unicode="&#xba;" d="M20 279v563q0 295 193 295q113 0 149.5 -75t36.5 -214v-576q0 -139 -43 -213.5t-147 -74.5q-188 0 -189 295zM174 258v-16q0 -76 35 -76q19 0 29 34q8 28 8 50v8v604v17q0 77 -35 77q-37 0 -37 -94v-604z" />
<glyph unicode="&#xbf;" horiz-adv-x="448" d="M-29 -127q0 96 60 240q23 57 26 65q35 86 49 172q6 35 7 109v256h145v-256q0 -106 -41 -271q-16 -63 -63 -182q-10 -25 -19.5 -52.5t-16.5 -66.5t4 -63.5t42 -24.5q33 0 61 56q2 4 31 90l123 -84q-12 -66 -66 -154q-63 -100 -153 -100q-188 0 -189 266zM100 893v227h166 v-227h-166z" />
<glyph unicode="&#xc0;" horiz-adv-x="520" d="M-6 0l137 1505h199l135 -1505h-166l-23 307h-94l-22 -307h-166zM68 1823h163l66 -185h-131zM199 541h63l-33 598z" />
<glyph unicode="&#xc1;" horiz-adv-x="520" d="M-6 0l137 1505h199l135 -1505h-166l-23 307h-94l-22 -307h-166zM158 1638l63 185h164l-96 -185h-131zM199 541h63l-33 598z" />
<glyph unicode="&#xc2;" horiz-adv-x="520" d="M-6 0l137 1505h199l135 -1505h-166l-23 307h-94l-22 -307h-166zM63 1638l87 185h165l84 -185h-133l-35 80l-34 -80h-134zM199 541h63l-33 598z" />
<glyph unicode="&#xc3;" horiz-adv-x="520" d="M-6 0l137 1505h199l135 -1505h-166l-23 307h-94l-22 -307h-166zM94 1604v176q31 43 84 43q25 0 57.5 -17.5t51 -17.5t45 20.5t37.5 38.5v-170q-31 -51 -82 -51q-25 0 -57.5 19.5t-53.5 19.5q-16 0 -44 -22.5t-38 -38.5zM199 541h63l-33 598z" />
<glyph unicode="&#xc4;" horiz-adv-x="520" d="M-6 0l137 1505h199l135 -1505h-166l-25 307h-90l-24 -307h-166zM57 1638v201h152v-201h-152zM201 541h59l-31 536zM256 1638v201h150v-201h-150z" />
<glyph unicode="&#xc5;" horiz-adv-x="520" d="M-6 0l137 1505h199l135 -1505h-166l-25 307h-90l-24 -307h-166zM121 1761.5q0 61.5 31.5 102.5t78.5 41q45 0 77 -41t32 -102.5t-32 -102.5t-77 -41q-47 0 -78.5 41t-31.5 102.5zM201 541h59l-31 536zM201 1761.5q0 -28.5 9 -47t21 -18.5q10 0 20.5 19.5t10.5 46t-10 45 t-21 18.5q-12 0 -21 -17.5t-9 -46z" />
<glyph unicode="&#xc6;" horiz-adv-x="720" d="M-8 0l252 1505h409v-227h-170v-395h123v-242h-123v-414h170v-227h-340v307h-100l-53 -307h-168zM248 541h65v561z" />
<glyph unicode="&#xc7;" horiz-adv-x="487" d="M18 289v928q0 121 48.5 213t152.5 92q57 0 100 -32t63.5 -82t30 -98t9.5 -93v-228h-166v228q0 90 -35 90q-29 0 -28 -82v-936q0 -90 28 -90q35 0 35 90v227h166v-227q0 -133 -47 -219t-156 -86q-74 0 -122 51t-63.5 114.5t-15.5 139.5zM143 -111h140v-141l-27 -133h-100 l24 133h-37v141z" />
<glyph unicode="&#xc8;" horiz-adv-x="438" d="M31 0v1505h340v-227h-170v-395h123v-242h-123v-414h170v-227h-340zM49 1823h164l66 -185h-132z" />
<glyph unicode="&#xc9;" horiz-adv-x="438" d="M31 0v1505h340v-227h-170v-395h123v-242h-123v-414h170v-227h-340zM123 1638l63 185h164l-96 -185h-131z" />
<glyph unicode="&#xca;" horiz-adv-x="438" d="M31 0v1505h340v-227h-170v-395h123v-242h-123v-414h170v-227h-340zM37 1638l86 185h166l84 -185h-133l-35 80l-35 -80h-133z" />
<glyph unicode="&#xcb;" horiz-adv-x="438" d="M31 0v1505h340v-227h-170v-395h123v-242h-123v-414h170v-227h-340zM31 1638v201h151v-201h-151zM229 1638v201h150v-201h-150z" />
<glyph unicode="&#xcc;" horiz-adv-x="303" d="M-20 1823h163l64 -185h-129zM41 0v1505h170v-1505h-170z" />
<glyph unicode="&#xcd;" horiz-adv-x="303" d="M31 0v1505h170v-1505h-170zM33 1638l63 185h164l-96 -185h-131z" />
<glyph unicode="&#xce;" horiz-adv-x="284" d="M-59 1638l86 185h166l83 -185h-133l-34 80l-35 -80h-133zM27 0v1505h168v-1505h-168z" />
<glyph unicode="&#xcf;" horiz-adv-x="284" d="M-59 1638v201h151v-201h-151zM27 0v1505h170v-1505h-170zM139 1638v201h150v-201h-150z" />
<glyph unicode="&#xd0;" horiz-adv-x="518" d="M-6 655v228h37v622h123q199 0 240.5 -128t41.5 -625q0 -135 -1 -210t-5 -166t-11 -134t-21.5 -95.5t-34 -73t-50 -42t-68.5 -26.5t-91 -5h-123v655h-37zM201 221q16 0 22 1t19.5 10.5t19.5 35t6 68.5v352q0 492 -6 547q-2 12 -6 21.5t-7 14.5t-11.5 8t-11.5 3t-13 1 t-12 1v-401h30v-228h-30v-434z" />
<glyph unicode="&#xd1;" horiz-adv-x="546" d="M31 0v1505h143l123 -710v710h158v-1505h-144l-123 731v-731h-157zM104 1604v176q31 43 84 43q25 0 58 -17.5t51 -17.5t45 20.5t37 38.5v-170q-31 -51 -82 -51q-25 0 -57.5 19.5t-53.5 19.5q-16 0 -44 -22.5t-38 -38.5z" />
<glyph unicode="&#xd2;" horiz-adv-x="495" d="M18 289v928q0 131 50.5 218t156.5 87q76 0 125 -53.5t64.5 -116.5t15.5 -135v-928q0 -133 -48 -219t-157 -86q-76 0 -124 48t-65.5 112.5t-17.5 144.5zM55 1823h164l66 -185h-131zM193 289q0 -90 34 -90q33 0 33 90v928q0 90 -33 90q-35 0 -34 -90v-928z" />
<glyph unicode="&#xd3;" horiz-adv-x="495" d="M18 289v928q0 131 50.5 218t156.5 87q76 0 125 -53.5t64.5 -116.5t15.5 -135v-928q0 -133 -48 -219t-157 -86q-76 0 -124 48t-65.5 112.5t-17.5 144.5zM152 1638l65 185h164l-98 -185h-131zM193 289q0 -90 34 -90q33 0 33 90v928q0 90 -33 90q-35 0 -34 -90v-928z" />
<glyph unicode="&#xd4;" horiz-adv-x="495" d="M18 289v928q0 131 50.5 218t156.5 87q76 0 125 -53.5t64.5 -116.5t15.5 -135v-928q0 -133 -48 -219t-157 -86q-76 0 -124 48t-65.5 112.5t-17.5 144.5zM55 1638l86 185h166l84 -185h-133l-35 80l-35 -80h-133zM193 289q0 -90 34 -90q33 0 33 90v928q0 90 -33 90 q-35 0 -34 -90v-928z" />
<glyph unicode="&#xd5;" horiz-adv-x="495" d="M18 289v928q0 131 50.5 218t156.5 87q76 0 125 -53.5t64.5 -116.5t15.5 -135v-928q0 -133 -48 -219t-157 -86q-76 0 -124 48t-65.5 112.5t-17.5 144.5zM80 1604v176q31 43 84 43q25 0 57.5 -17.5t51 -17.5t45 20.5t36.5 38.5v-170q-31 -51 -82 -51q-25 0 -57.5 19.5 t-52.5 19.5q-16 0 -44 -22.5t-38 -38.5zM193 289q0 -90 34 -90q33 0 33 90v928q0 90 -33 90q-35 0 -34 -90v-928z" />
<glyph unicode="&#xd6;" horiz-adv-x="495" d="M18 289v928q0 131 50.5 218t156.5 87q76 0 125 -53.5t64.5 -116.5t15.5 -135v-928q0 -133 -48 -219t-157 -86q-76 0 -124 48t-65.5 112.5t-17.5 144.5zM51 1638v201h152v-201h-152zM193 289q0 -90 34 -90q33 0 33 90v928q0 90 -33 90q-35 0 -34 -90v-928zM250 1638v201 h149v-201h-149z" />
<glyph unicode="&#xd8;" horiz-adv-x="495" d="M25 289v928q0 131 50 218t156 87q53 0 97 -27l6 31h94l-25 -129q33 -76 33 -180v-928q0 -133 -48 -219t-157 -86q-51 0 -96 24l-6 -28h-98l24 129q-31 72 -30 180zM199 289q0 -90 34 -90q33 0 33 90v399l-67 -350v-49zM199 836l67 344v37q0 90 -33 90q-35 0 -34 -90v-381 z" />
<glyph unicode="&#xd9;" horiz-adv-x="512" d="M16 289v1216h170v-1216q0 -90 33 -90q31 0 31 90v1216h170v-1216q0 -305 -201 -305q-203 0 -203 305zM72 1823h164l63 -185h-131z" />
<glyph unicode="&#xda;" horiz-adv-x="512" d="M16 289v1216h170v-1216q0 -90 33 -90q31 0 31 90v1216h170v-1216q0 -305 -201 -305q-203 0 -203 305zM166 1638l63 185h164l-96 -185h-131z" />
<glyph unicode="&#xdb;" horiz-adv-x="512" d="M16 289v1216h170v-1216q0 -90 33 -90q31 0 31 90v1216h170v-1216q0 -305 -201 -305q-203 0 -203 305zM45 1638l86 185h166l84 -185h-133l-35 80l-35 -80h-133z" />
<glyph unicode="&#xdc;" horiz-adv-x="512" d="M16 289v1216h170v-1216q0 -90 33 -90q31 0 31 90v1216h170v-1216q0 -305 -201 -305q-203 0 -203 305zM43 1638v201h152v-201h-152zM242 1638v201h149v-201h-149z" />
<glyph unicode="&#xdd;" horiz-adv-x="483" d="M-4 1505h168l57 -438q8 70 28.5 216.5t31.5 221.5h168l-142 -864v-641h-170v641zM133 1638l66 185h163l-98 -185h-131z" />
<glyph unicode="&#xde;" horiz-adv-x="495" d="M31 0v1505h170v-241q100 -6 157 -95q76 -121 76 -356q0 -233 -76 -354q-61 -88 -157 -99v-360h-170zM201 586q35 8 47 41q18 37 18 178q0 145 -18 186q-16 41 -47 47v-452z" />
<glyph unicode="&#xdf;" horiz-adv-x="514" d="M14 0v1235q0 121 52.5 204t154.5 83q109 0 156 -84t47 -201q0 -102 -59 -174q51 -53 71 -150q25 -117 25 -338q0 -354 -51 -475q-25 -57 -70 -78.5t-117 -21.5v193q45 0 60 67q18 84 18 315q0 246 -18 332q-17 72 -60 72v141q23 0 38 32t15 85q0 43 -15 71.5t-40 28.5 q-45 0 -45 -102v-1235h-162z" />
<glyph unicode="&#xe0;" horiz-adv-x="471" d="M10 260q0 270 156 404q57 48 65 79v121q0 94 -26 94q-14 0 -21.5 -32.5t-7.5 -61.5v-73h-156v67q0 109 48.5 194t142.5 85q86 0 131 -81t41 -173v-688q0 -113 10 -195h-137q-18 31 -25 68q-33 -84 -104 -84q-117 0 -117 276zM66 1489h163l64 -184h-131zM158 262 q0 -84 28 -84q18 0 30.5 22.5t12.5 53.5v260q-29 -37 -50 -111.5t-21 -140.5z" />
<glyph unicode="&#xe1;" horiz-adv-x="471" d="M10 260q0 270 156 404q57 48 65 79v121q0 94 -26 94q-14 0 -21.5 -32.5t-7.5 -61.5v-73h-156v67q0 109 48.5 194t142.5 85q86 0 131 -81t41 -173v-688q0 -113 10 -195h-137q-18 31 -25 68q-33 -84 -104 -84q-117 0 -117 276zM121 1305l65 184h164l-98 -184h-131zM158 262 q0 -84 28 -84q18 0 30.5 22.5t12.5 53.5v260q-29 -37 -50 -111.5t-21 -140.5z" />
<glyph unicode="&#xe2;" horiz-adv-x="471" d="M10 260q0 270 156 404q57 48 65 79v121q0 94 -26 94q-14 0 -21.5 -32.5t-7.5 -61.5v-73h-156v67q0 109 48.5 194t142.5 85q86 0 131 -81t41 -173v-688q0 -113 10 -195h-137q-18 31 -25 68q-33 -84 -104 -84q-117 0 -117 276zM37 1305l86 184h166l84 -184h-133l-35 79 l-35 -79h-133zM158 262q0 -84 28 -84q18 0 30.5 22.5t12.5 53.5v260q-29 -37 -50 -111.5t-21 -140.5z" />
<glyph unicode="&#xe3;" horiz-adv-x="471" d="M10 260q0 270 156 404q57 48 65 79v121q0 94 -26 94q-14 0 -21.5 -32.5t-7.5 -61.5v-73h-156v67q0 109 48.5 194t142.5 85q86 0 131 -81t41 -173v-688q0 -113 10 -195h-137q-18 31 -25 68q-33 -84 -104 -84q-117 0 -117 276zM66 1268v176q31 43 84 43q25 0 57.5 -17.5 t50.5 -17.5t45 20.5t37 38.5v-170q-31 -51 -82 -51q-25 0 -57.5 19.5t-53.5 19.5q-16 0 -43.5 -22.5t-37.5 -38.5zM158 262q0 -84 28 -84q18 0 30.5 22.5t12.5 53.5v260q-29 -37 -50 -111.5t-21 -140.5z" />
<glyph unicode="&#xe4;" horiz-adv-x="471" d="M10 260q0 270 156 404q57 48 65 79v121q0 94 -26 94q-14 0 -21.5 -32.5t-7.5 -61.5v-73h-156v67q0 109 48.5 194t142.5 85q86 0 131 -81t41 -173v-688q0 -113 10 -195h-137q-18 31 -25 68q-33 -84 -104 -84q-117 0 -117 276zM35 1305v200h151v-200h-151zM158 262 q0 -84 28 -84q18 0 30.5 22.5t12.5 53.5v260q-29 -37 -50 -111.5t-21 -140.5zM233 1305v200h150v-200h-150z" />
<glyph unicode="&#xe5;" horiz-adv-x="471" d="M10 260q0 270 156 404q57 48 65 79v121q0 94 -26 94q-14 0 -21.5 -32.5t-7.5 -61.5v-73h-156v67q0 109 48.5 194t142.5 85q86 0 131 -81t41 -173v-688q0 -113 10 -195h-137q-18 31 -25 68q-33 -84 -104 -84q-117 0 -117 276zM96 1421.5q0 61.5 32 102.5t79 41 q45 0 76.5 -41t31.5 -102.5t-31.5 -102.5t-76.5 -41q-47 0 -79 41t-32 102.5zM158 262q0 -84 28 -84q18 0 30.5 22.5t12.5 53.5v260q-29 -37 -50 -111.5t-21 -140.5zM176 1421.5q0 -28.5 9.5 -47t21.5 -18.5q10 0 20.5 19.5t10.5 46t-10.5 45t-20.5 18.5q-12 0 -21.5 -17.5 t-9.5 -46z" />
<glyph unicode="&#xe6;" horiz-adv-x="681" d="M14 260q0 270 156 404q57 49 66 79v121q0 94 -27 94q-14 0 -21.5 -32.5t-7.5 -61.5v-73h-155v67q0 109 48 194t142 85q57 0 102 -45q49 45 110.5 45t102.5 -25t59.5 -69t25 -87t6.5 -100v-334h-224v-243q0 -113 31 -113q39 0 39 113v122h154v-141q0 -276 -203 -276 q-78 0 -121 55q-43 -55 -129 -55q-61 0 -99 58t-46.5 112.5t-8.5 105.5zM162 262q0 -84 28 -84q18 0 30.5 22.5t12.5 53.5v260q-29 -37 -50 -111.5t-21 -140.5zM397 684h70v158q0 115 -41 114q-29 1 -29 -114v-158z" />
<glyph unicode="&#xe7;" horiz-adv-x="448" d="M20 295v530q0 55 9.5 104.5t29 98.5t58.5 79t94 30q66 0 106.5 -25t58 -75t21.5 -91t4 -110v-109h-155v147q0 82 -31 82q-14 0 -23.5 -25.5t-9.5 -56.5v-616q0 -88 31 -88q33 0 33 88v156h155v-129q0 -57 -3 -93t-14 -80t-30.5 -69t-56.5 -42t-90 -17q-57 0 -96 30.5 t-57.5 81.5t-26 99.5t-7.5 99.5zM125 -111h139v-141l-26 -133h-101l25 133h-37v141z" />
<glyph unicode="&#xe8;" d="M20 266v584q0 115 47.5 201t141.5 86q61 0 102 -25t59.5 -69t24.5 -87t6 -100v-334h-223v-243q0 -113 31 -113q39 0 39 113v122h153v-141q0 -276 -202 -276q-68 0 -110 46t-55.5 104.5t-13.5 131.5zM45 1489h164l63 -184h-131zM178 684h70v158q0 115 -41 114 q-29 1 -29 -114v-158z" />
<glyph unicode="&#xe9;" d="M20 266v584q0 115 47.5 201t141.5 86q61 0 102 -25t59.5 -69t24.5 -87t6 -100v-334h-223v-243q0 -113 31 -113q39 0 39 113v122h153v-141q0 -276 -202 -276q-68 0 -110 46t-55.5 104.5t-13.5 131.5zM139 1305l66 184h164l-99 -184h-131zM178 684h70v158q0 115 -41 114 q-29 1 -29 -114v-158z" />
<glyph unicode="&#xea;" d="M20 266v584q0 115 47.5 201t141.5 86q61 0 102 -25t59.5 -69t24.5 -87t6 -100v-334h-223v-243q0 -113 31 -113q39 0 39 113v122h153v-141q0 -276 -202 -276q-68 0 -110 46t-55.5 104.5t-13.5 131.5zM41 1305l86 184h166l84 -184h-133l-35 79l-35 -79h-133zM178 684h70 v158q0 115 -41 114q-29 1 -29 -114v-158z" />
<glyph unicode="&#xeb;" d="M20 266v584q0 115 47.5 201t141.5 86q61 0 102 -25t59.5 -69t24.5 -87t6 -100v-334h-223v-243q0 -113 31 -113q39 0 39 113v122h153v-141q0 -276 -202 -276q-68 0 -110 46t-55.5 104.5t-13.5 131.5zM37 1305v200h151v-200h-151zM178 684h70v158q0 115 -41 114 q-29 1 -29 -114v-158zM236 1305v200h149v-200h-149z" />
<glyph unicode="&#xec;" horiz-adv-x="284" d="M-37 1489h164l66 -184h-132zM31 0v1120h162v-1120h-162z" />
<glyph unicode="&#xed;" horiz-adv-x="284" d="M31 0v1120h162v-1120h-162zM31 1305l63 184h164l-96 -184h-131z" />
<glyph unicode="&#xee;" horiz-adv-x="284" d="M-55 1305l86 184h166l84 -184h-134l-34 79l-35 -79h-133zM31 0v1120h162v-1120h-162z" />
<glyph unicode="&#xef;" horiz-adv-x="284" d="M-61 1305v200h151v-200h-151zM31 0v1120h162v-1120h-162zM137 1305v200h150v-200h-150z" />
<glyph unicode="&#xf0;" horiz-adv-x="464" d="M16 279v579q6 279 134 279q33 0 71 -35q-4 37 -20 127l-43 -64l-45 88l65 93q-4 12 -12 27.5t-14 24.5l-7 9l86 131l33 -68l55 82l46 -90l-58 -88q86 -229 86 -446v-656q0 -106 -46 -197t-142 -91q-100 0 -144.5 89t-44.5 206zM170 258q0 -92 35 -92q12 0 23.5 32.5 t11.5 59.5v604q0 94 -35 94q-14 0 -24.5 -36.5t-10.5 -57.5v-604z" />
<glyph unicode="&#xf1;" horiz-adv-x="475" d="M31 0v1120h162v-57q16 25 49.5 49.5t58.5 24.5q111 0 111 -219v-918h-160v885q0 72 -31 71q-28 1 -28 -73v-883h-162zM70 1276v176q31 43 84 43q25 0 57.5 -17.5t51 -17.5t45 20.5t36.5 39.5v-170q-31 -51 -82 -52q-25 0 -57.5 19.5t-52.5 19.5q-16 0 -44 -22.5 t-38 -38.5z" />
<glyph unicode="&#xf2;" d="M20 279v563q0 295 193 295q113 0 149.5 -75t36.5 -214v-576q0 -139 -43 -213.5t-147 -74.5q-188 0 -189 295zM43 1489h164l63 -184h-131zM174 258q-4 -92 35 -92q20 0 29.5 34.5t7.5 57.5v604q4 94 -35 94q-37 0 -37 -94v-604z" />
<glyph unicode="&#xf3;" d="M20 279v563q0 295 193 295q113 0 149.5 -75t36.5 -214v-576q0 -139 -43 -213.5t-147 -74.5q-188 0 -189 295zM137 1305l64 184h164l-97 -184h-131zM174 258q-4 -92 35 -92q20 0 29.5 34.5t7.5 57.5v604q4 94 -35 94q-37 0 -37 -94v-604z" />
<glyph unicode="&#xf4;" d="M20 279v563q0 295 193 295q113 0 149.5 -75t36.5 -214v-576q0 -139 -43 -213.5t-147 -74.5q-188 0 -189 295zM41 1305l86 184h166l84 -184h-133l-35 79l-35 -79h-133zM174 258q-4 -92 35 -92q20 0 29.5 34.5t7.5 57.5v604q4 94 -35 94q-37 0 -37 -94v-604z" />
<glyph unicode="&#xf5;" d="M20 279v563q0 295 193 295q113 0 149.5 -75t36.5 -214v-576q0 -139 -43 -213.5t-147 -74.5q-188 0 -189 295zM59 1274v176q31 43 84 43q25 0 57.5 -17.5t51 -17.5t45.5 20.5t37 39.5v-170q-31 -51 -82 -52q-25 0 -57.5 19.5t-53.5 19.5q-16 0 -44 -22.5t-38 -38.5z M174 258q-4 -92 35 -92q20 0 29.5 34.5t7.5 57.5v604q4 94 -35 94q-37 0 -37 -94v-604z" />
<glyph unicode="&#xf6;" d="M20 279v563q0 295 193 295q113 0 149.5 -75t36.5 -214v-576q0 -139 -43 -213.5t-147 -74.5q-188 0 -189 295zM37 1305v200h151v-200h-151zM174 258q-4 -92 35 -92q20 0 29.5 34.5t7.5 57.5v604q4 94 -35 94q-37 0 -37 -94v-604zM236 1305v200h149v-200h-149z" />
<glyph unicode="&#xf8;" horiz-adv-x="468" d="M27 279v563q0 295 192 295q35 -1 70 -11l14 70h88l-26 -129q41 -63 41 -219v-576q0 -139 -43.5 -213.5t-147.5 -74.5q-31 0 -61 10l-13 -70h-92l25 129q-47 70 -47 226zM180 580l68 344q-6 33 -31 32q-37 0 -37 -94v-282zM190 180q10 -14 25 -14q20 0 29.5 35t7.5 57v229 z" />
<glyph unicode="&#xf9;" horiz-adv-x="475" d="M23 203v917h159v-884q0 -72 31 -72q29 0 29 74v882h161v-1120h-161v57q-16 -25 -50 -49t-59 -24q-111 0 -110 219zM51 1489h164l64 -184h-132z" />
<glyph unicode="&#xfa;" horiz-adv-x="475" d="M23 203v917h159v-884q0 -72 31 -72q29 0 29 74v882h161v-1120h-161v57q-16 -25 -50 -49t-59 -24q-111 0 -110 219zM145 1305l66 184h164l-99 -184h-131z" />
<glyph unicode="&#xfb;" horiz-adv-x="475" d="M23 203v917h159v-884q0 -72 31 -72q29 0 29 74v882h161v-1120h-161v57q-16 -25 -50 -49t-59 -24q-111 0 -110 219zM41 1305l86 184h166l84 -184h-133l-35 79l-35 -79h-133z" />
<glyph unicode="&#xfc;" horiz-adv-x="475" d="M23 203v917h159v-884q0 -72 31 -72q29 0 29 74v882h161v-1120h-161v57q-16 -25 -50 -49t-59 -24q-111 0 -110 219zM35 1305v200h151v-200h-151zM233 1305v200h150v-200h-150z" />
<glyph unicode="&#xfd;" horiz-adv-x="462" d="M-4 1120h158l59 -661q6 78 27.5 333t25.5 328h160l-139 -1204q-12 -137 -58 -217q-35 -66 -91 -91.5t-115 -2.5v182q47 -18 71 10q37 55 37 170zM131 1305l64 184h163l-96 -184h-131z" />
<glyph unicode="&#xfe;" horiz-adv-x="473" d="M29 -385v1890h161v-432q4 20 33 42t51 22q125 0 125 -219v-715v-36q0 -32 -1 -43t-4 -40t-9 -41t-15.5 -28.5t-25.5 -23.5t-37 -7q-37 0 -71.5 27.5t-45.5 49.5v-446h-161zM190 256q0 -78 29 -78t29 78v627q0 74 -29 74t-29 -74v-627z" />
<glyph unicode="&#xff;" horiz-adv-x="442" d="M-4 1120h158l59 -661q6 78 27.5 333t25.5 328h160l-139 -1204q-12 -137 -58 -217q-35 -66 -91 -91.5t-115 -2.5v182q47 -18 71 10q37 55 37 170zM35 1305v200h151v-200h-151zM233 1305v200h150v-200h-150z" />
<glyph unicode="&#x152;" horiz-adv-x="651" d="M23 309v887q0 309 204 309h377v-227h-170v-395h123v-242h-123v-414h170v-227h-377q-205 10 -204 309zM193 309q0 -43 10 -76.5t24 -33.5q20 0 28.5 40.5t8.5 69.5v887q0 29 -10 70t-27 41q-14 0 -24 -40t-10 -71v-887z" />
<glyph unicode="&#x153;" horiz-adv-x="659" d="M23 279v563q0 295 192 295q76 0 121 -41q45 41 104 41q61 0 102.5 -25t60 -69t24.5 -87t6 -100v-334h-223v-243q0 -113 30 -113q39 0 39 113v122h154v-141q0 -276 -203 -276q-61 0 -102 36q-47 -37 -117 -36q-188 0 -188 295zM176 258q-4 -92 35 -92q20 0 29.5 34.5 t7.5 57.5v604q4 94 -35 94q-37 0 -37 -94v-604zM410 684h69v158q0 115 -41 114q-28 1 -28 -114v-158z" />
<glyph unicode="&#x178;" horiz-adv-x="483" d="M-4 1505h168l57 -438q8 70 28.5 216.5t31.5 221.5h168l-142 -864v-641h-170v641zM47 1638v201h152v-201h-152zM246 1638v201h149v-201h-149z" />
<glyph unicode="&#x2c6;" horiz-adv-x="673" d="M139 1305l86 184h166l84 -184h-133l-35 79l-35 -79h-133z" />
<glyph unicode="&#x2dc;" horiz-adv-x="675" d="M170 1276v176q31 43 84 43q25 0 57.5 -17.5t51 -17.5t45 20.5t36.5 39.5v-170q-31 -51 -82 -52q-25 0 -57.5 19.5t-52.5 19.5q-16 0 -44 -22.5t-38 -38.5z" />
<glyph unicode="&#x2000;" horiz-adv-x="952" />
<glyph unicode="&#x2001;" horiz-adv-x="1905" />
<glyph unicode="&#x2002;" horiz-adv-x="952" />
<glyph unicode="&#x2003;" horiz-adv-x="1905" />
<glyph unicode="&#x2004;" horiz-adv-x="635" />
<glyph unicode="&#x2005;" horiz-adv-x="476" />
<glyph unicode="&#x2006;" horiz-adv-x="317" />
<glyph unicode="&#x2007;" horiz-adv-x="317" />
<glyph unicode="&#x2008;" horiz-adv-x="238" />
<glyph unicode="&#x2009;" horiz-adv-x="381" />
<glyph unicode="&#x200a;" horiz-adv-x="105" />
<glyph unicode="&#x2010;" horiz-adv-x="327" d="M27 455v194h215v-194h-215z" />
<glyph unicode="&#x2011;" horiz-adv-x="327" d="M27 455v194h215v-194h-215z" />
<glyph unicode="&#x2012;" horiz-adv-x="327" d="M27 455v194h215v-194h-215z" />
<glyph unicode="&#x2013;" horiz-adv-x="544" d="M27 649v195h432v-195h-432z" />
<glyph unicode="&#x2014;" horiz-adv-x="645" d="M27 649v195h530v-195h-530z" />
<glyph unicode="&#x2018;" horiz-adv-x="247" d="M10 1012v227l68 266h98l-43 -266h43v-227h-166z" />
<glyph unicode="&#x2019;" horiz-adv-x="247" d="M8 1012l43 266h-43v227h166v-227l-68 -266h-98z" />
<glyph unicode="&#x201a;" horiz-adv-x="247" d="M8 0v227h166v-227l-68 -266h-98l43 266h-43z" />
<glyph unicode="&#x201c;" horiz-adv-x="475" d="M14 1012v227l68 266h98l-43 -266h43v-227h-166zM236 1012v227l67 266h98l-43 -266h43v-227h-165z" />
<glyph unicode="&#x201d;" horiz-adv-x="466" d="M14 1012l43 266h-43v227h166v-227l-67 -266h-99zM236 1012l43 266h-43v227h165v-227l-67 -266h-98z" />
<glyph unicode="&#x201e;" horiz-adv-x="436" d="M14 0v227h166v-227l-67 -266h-99l43 266h-43zM195 0v227h165v-227l-67 -266h-98l43 266h-43z" />
<glyph unicode="&#x2022;" horiz-adv-x="458" d="M27 821.5q0 71.5 50 121.5t121.5 50t122 -50t50.5 -121.5t-50.5 -122t-122 -50.5t-121.5 50.5t-50 122z" />
<glyph unicode="&#x2026;" horiz-adv-x="651" d="M14 0v227h166v-227h-166zM227 0v227h166v-227h-166zM440 0v227h166v-227h-166z" />
<glyph unicode="&#x202f;" horiz-adv-x="381" />
<glyph unicode="&#x2039;" horiz-adv-x="696" d="M27 655v148l583 508v-219l-426 -363q14 -12 211 -180l215 -182v-220z" />
<glyph unicode="&#x203a;" horiz-adv-x="696" d="M27 147v220l424 362l-424 363v219l583 -508v-148z" />
<glyph unicode="&#x205f;" horiz-adv-x="476" />
<glyph unicode="&#x20ac;" horiz-adv-x="548" d="M14 547v137h64v137h-64v137h64v238q0 88 22 162q18 66 56 112q41 51 116.5 51.5t116.5 -51.5q33 -41 57 -112q20 -76 23 -162v-84h-162v84q0 53 -18 94h2q-12 16 -17 17q-8 0 -20 -56q-6 -25 -6 -55v-238h139v-137h-139v-137h139v-137h-139v-238q0 -57 18 -94h-2l10 -16 q16 0 29 55q4 29 4 55v84h162v-84q-2 -88 -23 -164q-20 -59 -57 -110q-41 -51 -116.5 -51t-116.5 51q-41 55 -56 110q-23 74 -22 164v238h-64z" />
<glyph unicode="&#x2122;" horiz-adv-x="624" d="M27 1401v104h229v-104h-63v-580h-105v580h-61zM287 821v684h102l43 -280q4 25 23.5 136.5t23.5 143.5h94v-684h-88v361q-30 -267 -36 -361h-39l-37 361v-361h-86z" />
<glyph unicode="&#xe000;" horiz-adv-x="1120" d="M0 1120h1120v-1120h-1120v1120z" />
<glyph unicode="&#xfb01;" horiz-adv-x="524" d="M-6 934v186h63v66q0 68 5.5 111.5t19.5 100t48 86t87 29.5q41 0 76 -20v-170q-37 23 -57 2q-18 -20 -19 -127v-78h223v-1120h-159v934h-64v-934h-160v934h-63z" />
<glyph unicode="&#xfb02;" horiz-adv-x="524" d="M-6 934v186h63v66q0 68 5.5 111.5t19.5 100t48 86t87 29.5l64 -8h161v-1505h-161v934h-64v-934h-160v934h-63zM217 1120h64v209q-31 10 -45 -4q-18 -20 -19 -127v-78z" />
<glyph unicode="&#xfb03;" horiz-adv-x="962" d="M723 0v1120h162v-1120h-162zM723 1298v207h162v-207h-162zM340 934v186h63v66q0 68 5.5 111.5t19.5 100t48 86t87 29.5q41 0 76 -20v-170q-37 23 -57 2q-18 -20 -19 -127v-78h64v-186h-64v-934h-160v934h-63zM-6 934v186h63v66q0 68 5.5 111.5t19.5 100t48 86t87 29.5 q41 0 76 -20v-170q-37 23 -57 2q-18 -20 -19 -127v-78h64v-186h-64v-934h-160v934h-63z" />
<glyph unicode="&#xfb04;" horiz-adv-x="972" d="M723 0v1505h162v-1505h-162zM340 934v186h63v66q0 68 5.5 111.5t19.5 100t48 86t87 29.5q41 0 76 -20v-170q-37 23 -57 2q-18 -20 -19 -127v-78h64v-186h-64v-934h-160v934h-63zM-6 934v186h63v66q0 68 5.5 111.5t19.5 100t48 86t87 29.5q41 0 76 -20v-170q-37 23 -57 2 q-18 -20 -19 -127v-78h64v-186h-64v-934h-160v934h-63z" />
</font>
</defs>
</svg>
